<?xml version="1.0" standalone="no"?>
<!DOCTYPE svg PUBLIC "-//W3C//DTD SVG 1.0//EN" "http://www.w3.org/TR/2001/REC-SVG-20010904/DTD/svg10.dtd">
<svg xmlns="http://www.w3.org/2000/svg" xmlns:xlink="http://www.w3.org/1999/xlink" id="body_1" width="240" height="240">

<defs>
        <clipPath  id="1">

            <path clip-rule="evenodd" d="M18 123L164 123L164 142L18 142L18 123z" />        </clipPath>
            <clipPath  id="2">

                <path clip-rule="evenodd" d="M40.42578 79.859375L164.00781 127.58594L141.57031 185.6836L17.988281 137.95703L40.42578 79.859375z" />            </clipPath>
                <clipPath  id="3">

                    <path clip-rule="evenodd" d="M40.42578 79.859375L164.00781 127.58594L141.57031 185.6836L17.988281 137.95703L40.42578 79.859375z" />                </clipPath>
        <clipPath  id="4">

            <path clip-rule="evenodd" d="M26.695312 22.398438L82.49609 22.398438L82.49609 72.44141L26.695312 72.44141L26.695312 22.398438z" />        </clipPath>
</defs>

<g transform="matrix(1.3333334 0 0 1.3333334 0 0)">
	<g>
		<g transform="matrix(1 0 0 1 45.14681 114.100815)">
			<g>
                <path d="M16.441406 -50.308594C 12.402344 -42.36328 8.726562 -34.257812 5.140625 -25.980469C 0.597656 -25.152344 -3.683594 -24.25 -7.265625 -23.554688C -9.441406 -23.011719 -7.980469 -19.996094 -7.398438 -18.875C -3.578125 -12.527344 -4.347656 -6.320312 -6.675781 0.484375C -6.828125 1.023438 -6.722656 1.371094 -6.449219 1.621094C -6.308594 2.761719 -5.019531 3.933594 -4.226562 3.898438C -3.964844 3.886719 -3.707031 3.699219 -3.636719 3.34375C -0.203125 -4.398438 4.042969 -13.585938 8.378906 -22.691406C 13.203125 -23.269531 18.199219 -23.855469 22.769531 -24.152344C 16.480469 -7.730469 12.574219 8.761719 18.105469 12.117188C 18.289062 12.285156 18.554688 12.273438 18.730469 12.265625C 19.34375 12.238281 19.9375 11.679688 18.941406 11.109375C 15.324219 9.164062 21.679688 -7.792969 28.9375 -24.265625C 30.875 -24.265625 32.5625 -23.992188 33.71875 -23.78125C 35.054688 -23.488281 36.25 -28.128906 30.9375 -28.589844C 36.859375 -41.558594 43.007812 -53.48047 44.8125 -56.38672C 45.789062 -58.10547 42.753906 -58.933594 40.73047 -58.839844C 39.941406 -58.804688 39.242188 -58.59375 39.085938 -58.234375C 35.61328 -53.226562 29.648438 -41.222656 24.507812 -28.464844C 20.023438 -28.257812 15.113281 -27.675781 10.304688 -26.835938C 14 -34.589844 17.703125 -42.16797 21.015625 -48.66797C 21.175781 -49.027344 18.707031 -50.941406 17.296875 -50.875C 16.945312 -50.859375 16.6875 -50.76172 16.441406 -50.308594zM-5.796875 -20.449219C -3.261719 -20.917969 -0.113281 -21.417969 3.386719 -22.019531L3.386719 -22.019531L-2.808594 -7.363281C -2.402344 -11.878906 -3.222656 -16.246094 -5.796875 -20.449219z" stroke="none" fill="#FC6111" fill-rule="nonzero" />
			</g>
		</g>
	</g>
	<g>
		<g transform="matrix(1 0 0 1 75.14277 112.70882)">
			<g>
                <path d="M15.792969 -41.55078C 15.441406 -41.535156 15.273438 -41.347656 14.855469 -40.80078C 12.714844 -37.527344 10.019531 -31.054688 10.648438 -27.03125C 10.757812 -26.507812 10.949219 -26.25 11.035156 -26.253906C 11.125 -26.257812 11.203125 -26.4375 11.449219 -26.800781C 13.832031 -30.617188 16.03125 -34.507812 18.5 -38.23828C 18.660156 -38.597656 19.167969 -39.0625 18.878906 -39.578125C 18.480469 -40.617188 17.109375 -41.609375 15.792969 -41.55078zM16.847656 -18.765625C 16.847656 -18.765625 16.761719 -18.761719 16.679688 -18.582031C 13.304688 -13.488281 9.839844 -8.304688 5.179688 -4.296875C 4.578125 -3.914062 4.324219 -3.726562 3.972656 -3.710938C 3.882812 -3.707031 3.882812 -3.707031 3.792969 -3.789062C 2.617188 -4.351562 4.9375 -9.484375 5.253906 -10.292969C 6.847656 -13.894531 8.785156 -17.773438 10.75 -21.039062L10.75 -21.039062L10.828125 -21.21875C 11.714844 -23.023438 9.820312 -23.90625 8.472656 -24.460938C 7.9375 -24.613281 7.578125 -24.769531 7.3125 -24.757812C 5.820312 -24.691406 0.34375 -9.714844 -0.4375 -7.5625C -1.441406 -4.429688 0.898438 -1.539062 3.363281 -1.65625C 6.878906 -1.816406 13.589844 -11.121094 15.480469 -14.03125C 16.128906 -15.292969 16.949219 -16.566406 17.773438 -17.839844C 17.570312 -18.445312 17.289062 -18.785156 16.847656 -18.765625z" stroke="none" fill="#FC6111" fill-rule="nonzero" />
			</g>
		</g>
	</g>
	<g>
		<g transform="matrix(1 0 0 1 86.666145 112.174065)">
			<g>
                <path d="M18.519531 -37.88672C 19.273438 -38.714844 17.324219 -40.828125 14.859375 -40.714844C 13.1875 -40.63672 12.617188 -39.640625 11.800781 -38.277344C 8.808594 -32.410156 -1.398438 -7.339844 -1.972656 1.148438C -1.992188 2.648438 -1.402344 5.882812 0.625 5.878906C 1.542969 -4.742188 14.316406 -33.460938 18.519531 -37.88672z" stroke="none" fill="#FC6111" fill-rule="nonzero" />
			</g>
		</g>
	</g>
	<g>
		<g transform="matrix(1 0 0 1 95.72651 111.7536)">
			<g>
                <path d="M18.519531 -37.88672C 19.273438 -38.714844 17.324219 -40.828125 14.859375 -40.714844C 13.1875 -40.63672 12.617188 -39.640625 11.800781 -38.277344C 8.808594 -32.410156 -1.398438 -7.339844 -1.972656 1.148438C -1.992188 2.648438 -1.402344 5.882812 0.625 5.878906C 1.542969 -4.742188 14.316406 -33.460938 18.519531 -37.88672z" stroke="none" fill="#FC6111" fill-rule="nonzero" />
			</g>
		</g>
	</g>
	<g>
		<g transform="matrix(1 0 0 1 104.78687 111.333145)">
			<g>
                <path d="M16.484375 -7.640625C 16.28125 -8.160156 16.332031 -9.042969 16.703125 -10.472656C 16.957031 -12.601562 17.921875 -16.523438 19.617188 -18.011719C 20.300781 -18.484375 20.207031 -18.570312 19.652344 -19.160156C 18.722656 -20.175781 17.734375 -20.570312 16.855469 -20.53125C 16.503906 -20.511719 16.15625 -20.410156 15.722656 -20.210938C 16.308594 -22.796875 16.617188 -25.632812 14.585938 -27.652344C 14.03125 -28.15625 13.214844 -28.648438 12.335938 -28.605469C 11.371094 -28.5625 10.339844 -27.984375 9.15625 -26.871094C 4.078125 -22.316406 -4.953125 -4.179688 2.140625 -1.332031C 2.683594 -1.09375 3.042969 -0.933594 3.570312 -0.960938C 3.746094 -0.96875 3.917969 -1.0625 4.09375 -1.070312C 6.417969 -2.238281 9.347656 -7.574219 11.785156 -12.007812C 11.792969 -11.832031 11.796875 -11.742188 11.722656 -11.476562C 11.480469 -9.085938 11.351562 -6.167969 13.1875 -4.578125C 13.738281 -4.074219 14.371094 -3.753906 15.164062 -3.789062C 19.914062 -4.007812 26.5 -15.953125 28.140625 -18.585938C 27.832031 -19.539062 27.570312 -19.527344 26.863281 -19.496094C 26.453125 -18.859375 19.3125 -7.507812 17.023438 -7.402344C 16.847656 -7.394531 16.667969 -7.472656 16.484375 -7.640625zM12.183594 -22.429688C 12.859375 -23.078125 13.367188 -23.542969 13.804688 -23.5625C 14.507812 -23.59375 14.75 -22.195312 14.53125 -19.277344C 13.769531 -18.625 13.371094 -17.722656 12.972656 -16.824219C 9.925781 -12.1875 6.113281 -5.042969 4.792969 -4.984375C 3.511719 -5.980469 8.921875 -18.574219 12.183594 -22.429688z" stroke="none" fill="#FC6111" fill-rule="nonzero" />
			</g>
		</g>
	</g>
	<g>
		<g transform="matrix(1 0 0 1 126.33505 110.333176)">
			<g>
			</g>
		</g>
	</g>
	<g clip-path="url(#1)" >
		<g clip-path="url(#2)" >
			<g clip-path="url(#3)" >
                <path d="M19.582031 134.84766C 23.027344 132.04297 137.96875 114.734375 163.77734 128.1914C 135.10156 124.01172 59.171875 132.57031 34.32422 139.58984C 35.82422 140.01562 37.88672 140.36719 40.78125 140.58203C 39.61328 141.83594 31.546875 141.22266 28.070312 140.57812C 22.4375 139.69531 16.527344 137.32812 19.574219 134.86328L19.574219 134.86328L19.582031 134.84766z" stroke="none" fill="#000000" fill-rule="nonzero" />
			</g>
		</g>
	</g>
	<g clip-path="url(#4)" >
        <path d="M35.60547 62.316406L43.30078 72.44141C 43.30078 72.44141 50.3125 56.898438 67.05859 51.554688C 67.05859 51.554688 52.089844 54.59375 42.875 66.49219L42.875 66.49219L39.621094 62.234375L38.433594 60.70703L39.632812 58.804688C 36.722656 58.63672 33.80078 58.746094 31.597656 55.679688C 29.394531 52.617188 32.339844 44.304688 38.5625 42.26953C 38.83203 42.17578 39.117188 42.10547 39.38672 42.03125C 39.058594 44.777344 38.679688 48.359375 38.539062 48.726562C 41.4375 41.66797 53.859375 15.800781 62.26172 34.34375C 62.26172 34.34375 62.414062 33.671875 62.546875 32.640625C 70.82031 27.273438 72.97656 33.589844 73.08203 39.07422C 58.375 37.679688 48.003906 52.6875 46.57422 54.878906L46.57422 54.878906L46.5625 54.890625L46.527344 54.9375C 46.445312 55.066406 46.398438 55.13672 46.398438 55.13672L46.398438 55.13672L47.28125 54.285156C 56.921875 45.132812 66.53906 43.5 70.67578 43.23828L70.67578 43.23828L75.60156 50.195312C 75.60156 50.195312 55.16797 55.007812 47.507812 72.32031C 47.507812 72.32031 61.34375 55.66797 82.25 53.339844L82.25 53.339844L75.60156 42.316406C 79.140625 27.214844 68.98047 24.550781 63.097656 27.402344C 62.839844 27.519531 62.617188 27.59375 62.4375 27.640625C 61.898438 24.917969 60.29297 22.410156 56.26172 22.398438C 55.60547 22.398438 54.882812 22.460938 54.08203 22.601562C 44.41797 24.328125 41.378906 33.847656 39.82422 38.933594C 39.8125 38.96875 39.80078 39.027344 39.789062 39.089844C 39.339844 39.148438 38.984375 39.20703 38.796875 39.23047C 37.796875 39.359375 36.804688 39.585938 35.816406 39.902344C 28.285156 42.36328 25.621094 51.10547 27.402344 56.128906C 28.957031 60.54297 31.832031 61.5 35.58203 62.304688L35.58203 62.304688L35.60547 62.316406z" stroke="none" fill="#7ED957" fill-rule="nonzero" />
	</g>
	<g>
		<g transform="matrix(1 0 0 1 52.142128 144.40216)">
			<g>
                <path d="M5.03125 0L3.75 -1.859375L2.328125 -1.859375L2.328125 0L0.796875 0L0.796875 -6.65625L3.671875 -6.65625C 4.265625 -6.65625 4.773438 -6.554688 5.203125 -6.359375C 5.640625 -6.171875 5.972656 -5.894531 6.203125 -5.53125C 6.441406 -5.164062 6.5625 -4.738281 6.5625 -4.25C 6.5625 -3.75 6.441406 -3.316406 6.203125 -2.953125C 5.972656 -2.597656 5.640625 -2.328125 5.203125 -2.140625L5.203125 -2.140625L6.6875 0L5.03125 0zM5 -4.25C 5 -4.625 4.878906 -4.910156 4.640625 -5.109375C 4.398438 -5.304688 4.050781 -5.40625 3.59375 -5.40625L3.59375 -5.40625L2.328125 -5.40625L2.328125 -3.078125L3.59375 -3.078125C 4.050781 -3.078125 4.398438 -3.175781 4.640625 -3.375C 4.878906 -3.582031 5 -3.875 5 -4.25z" stroke="none" fill="#6E6D6D" fill-rule="nonzero" />
			</g>
		</g>
	</g>
	<g>
		<g transform="matrix(1 0 0 1 62.990147 144.40216)">
			<g>
                <path d="M5.953125 -1.234375L5.953125 0L0.796875 0L0.796875 -6.65625L5.828125 -6.65625L5.828125 -5.421875L2.328125 -5.421875L2.328125 -3.984375L5.421875 -3.984375L5.421875 -2.78125L2.328125 -2.78125L2.328125 -1.234375L5.953125 -1.234375z" stroke="none" fill="#6E6D6D" fill-rule="nonzero" />
			</g>
		</g>
	</g>
	<g>
		<g transform="matrix(1 0 0 1 73.229904 144.40216)">
			<g>
                <path d="M2.984375 0.109375C 2.453125 0.109375 1.941406 0.0390625 1.453125 -0.09375C 0.960938 -0.238281 0.566406 -0.425781 0.265625 -0.65625L0.265625 -0.65625L0.796875 -1.8125C 1.078125 -1.601562 1.410156 -1.4375 1.796875 -1.3125C 2.191406 -1.1875 2.585938 -1.125 2.984375 -1.125C 3.421875 -1.125 3.742188 -1.1875 3.953125 -1.3125C 4.160156 -1.445312 4.265625 -1.625 4.265625 -1.84375C 4.265625 -2 4.203125 -2.128906 4.078125 -2.234375C 3.960938 -2.335938 3.804688 -2.421875 3.609375 -2.484375C 3.421875 -2.546875 3.160156 -2.613281 2.828125 -2.6875C 2.316406 -2.8125 1.898438 -2.929688 1.578125 -3.046875C 1.253906 -3.171875 0.976562 -3.363281 0.75 -3.625C 0.519531 -3.894531 0.40625 -4.253906 0.40625 -4.703125C 0.40625 -5.085938 0.507812 -5.4375 0.71875 -5.75C 0.925781 -6.0625 1.238281 -6.3125 1.65625 -6.5C 2.082031 -6.6875 2.597656 -6.78125 3.203125 -6.78125C 3.628906 -6.78125 4.046875 -6.726562 4.453125 -6.625C 4.859375 -6.519531 5.210938 -6.375 5.515625 -6.1875L5.515625 -6.1875L5.046875 -5.015625C 4.429688 -5.359375 3.816406 -5.53125 3.203125 -5.53125C 2.765625 -5.53125 2.441406 -5.460938 2.234375 -5.328125C 2.035156 -5.191406 1.9375 -5.007812 1.9375 -4.78125C 1.9375 -4.550781 2.050781 -4.378906 2.28125 -4.265625C 2.519531 -4.148438 2.882812 -4.039062 3.375 -3.9375C 3.882812 -3.820312 4.300781 -3.703125 4.625 -3.578125C 4.945312 -3.453125 5.222656 -3.257812 5.453125 -3C 5.679688 -2.738281 5.796875 -2.390625 5.796875 -1.953125C 5.796875 -1.566406 5.691406 -1.21875 5.484375 -0.90625C 5.273438 -0.59375 4.957031 -0.34375 4.53125 -0.15625C 4.101562 0.0195312 3.585938 0.109375 2.984375 0.109375z" stroke="none" fill="#6E6D6D" fill-rule="nonzero" />
			</g>
		</g>
	</g>
	<g>
		<g transform="matrix(1 0 0 1 83.15603 144.40216)">
			<g>
                <path d="M2.171875 -5.40625L0.03125 -5.40625L0.03125 -6.65625L5.84375 -6.65625L5.84375 -5.40625L3.71875 -5.40625L3.71875 0L2.171875 0L2.171875 -5.40625z" stroke="none" fill="#6E6D6D" fill-rule="nonzero" />
			</g>
		</g>
	</g>
	<g>
		<g transform="matrix(1 0 0 1 92.892075 144.40216)">
			<g>
                <path d="M5.171875 -1.421875L2.078125 -1.421875L1.5 0L-0.078125 0L2.890625 -6.65625L4.40625 -6.65625L7.390625 0L5.765625 0L5.171875 -1.421875zM4.6875 -2.59375L3.640625 -5.140625L2.578125 -2.59375z" stroke="none" fill="#6E6D6D" fill-rule="nonzero" />
			</g>
		</g>
	</g>
	<g>
		<g transform="matrix(1 0 0 1 104.03473 144.40216)">
			<g>
                <path d="M3.75 0.109375C 2.800781 0.109375 2.0625 -0.148438 1.53125 -0.671875C 1 -1.203125 0.734375 -1.957031 0.734375 -2.9375L0.734375 -2.9375L0.734375 -6.65625L2.28125 -6.65625L2.28125 -2.984375C 2.28125 -1.796875 2.773438 -1.203125 3.765625 -1.203125C 4.242188 -1.203125 4.609375 -1.34375 4.859375 -1.625C 5.117188 -1.914062 5.25 -2.367188 5.25 -2.984375L5.25 -2.984375L5.25 -6.65625L6.765625 -6.65625L6.765625 -2.9375C 6.765625 -1.957031 6.5 -1.203125 5.96875 -0.671875C 5.4375 -0.148438 4.695312 0.109375 3.75 0.109375z" stroke="none" fill="#6E6D6D" fill-rule="nonzero" />
			</g>
		</g>
	</g>
	<g>
		<g transform="matrix(1 0 0 1 115.38647 144.40216)">
			<g>
                <path d="M5.03125 0L3.75 -1.859375L2.328125 -1.859375L2.328125 0L0.796875 0L0.796875 -6.65625L3.671875 -6.65625C 4.265625 -6.65625 4.773438 -6.554688 5.203125 -6.359375C 5.640625 -6.171875 5.972656 -5.894531 6.203125 -5.53125C 6.441406 -5.164062 6.5625 -4.738281 6.5625 -4.25C 6.5625 -3.75 6.441406 -3.316406 6.203125 -2.953125C 5.972656 -2.597656 5.640625 -2.328125 5.203125 -2.140625L5.203125 -2.140625L6.6875 0L5.03125 0zM5 -4.25C 5 -4.625 4.878906 -4.910156 4.640625 -5.109375C 4.398438 -5.304688 4.050781 -5.40625 3.59375 -5.40625L3.59375 -5.40625L2.328125 -5.40625L2.328125 -3.078125L3.59375 -3.078125C 4.050781 -3.078125 4.398438 -3.175781 4.640625 -3.375C 4.878906 -3.582031 5 -3.875 5 -4.25z" stroke="none" fill="#6E6D6D" fill-rule="nonzero" />
			</g>
		</g>
	</g>
	<g>
		<g transform="matrix(1 0 0 1 126.23448 144.40216)">
			<g>
                <path d="M5.171875 -1.421875L2.078125 -1.421875L1.5 0L-0.078125 0L2.890625 -6.65625L4.40625 -6.65625L7.390625 0L5.765625 0L5.171875 -1.421875zM4.6875 -2.59375L3.640625 -5.140625L2.578125 -2.59375z" stroke="none" fill="#6E6D6D" fill-rule="nonzero" />
			</g>
		</g>
	</g>
	<g>
		<g transform="matrix(1 0 0 1 137.37714 144.40216)">
			<g>
                <path d="M6.90625 -6.65625L6.90625 0L5.640625 0L2.3125 -4.046875L2.3125 0L0.796875 0L0.796875 -6.65625L2.0625 -6.65625L5.375 -2.609375L5.375 -6.65625L6.90625 -6.65625z" stroke="none" fill="#6E6D6D" fill-rule="nonzero" />
			</g>
		</g>
	</g>
	<g>
		<g transform="matrix(1 0 0 1 148.91895 144.40216)">
			<g>
                <path d="M2.171875 -5.40625L0.03125 -5.40625L0.03125 -6.65625L5.84375 -6.65625L5.84375 -5.40625L3.71875 -5.40625L3.71875 0L2.171875 0L2.171875 -5.40625z" stroke="none" fill="#6E6D6D" fill-rule="nonzero" />
			</g>
		</g>
	</g>
</g>
</svg>