<svg xmlns="http://www.w3.org/2000/svg" xmlns:xlink="http://www.w3.org/1999/xlink" width="240" zoomAndPan="magnify" viewBox="0 0 180 179.999997" height="240" preserveAspectRatio="xMidYMid meet" version="1.0"><defs><g/><clipPath id="id1"><path d="M 18 123 L 164 123 L 164 142 L 18 142 Z M 18 123 " clip-rule="nonzero"/></clipPath><clipPath id="id2"><path d="M 40.425781 79.859375 L 164.007812 127.585938 L 141.570312 185.683594 L 17.988281 137.957031 Z M 40.425781 79.859375 " clip-rule="nonzero"/></clipPath><clipPath id="id3"><path d="M 40.425781 79.859375 L 164.007812 127.585938 L 141.570312 185.683594 L 17.988281 137.957031 Z M 40.425781 79.859375 " clip-rule="nonzero"/></clipPath><clipPath id="id4"><path d="M 26.695312 22.398438 L 82.496094 22.398438 L 82.496094 72.441406 L 26.695312 72.441406 Z M 26.695312 22.398438 " clip-rule="nonzero"/></clipPath></defs><g fill="#fc6111" fill-opacity="1"><g transform="translate(45.146808, 114.100817)"><g><path d="M 16.441406 -50.308594 C 12.402344 -42.363281 8.726562 -34.257812 5.140625 -25.980469 C 0.597656 -25.152344 -3.683594 -24.25 -7.265625 -23.554688 C -9.441406 -23.011719 -7.980469 -19.996094 -7.398438 -18.875 C -3.578125 -12.527344 -4.347656 -6.320312 -6.675781 0.484375 C -6.828125 1.023438 -6.722656 1.371094 -6.449219 1.621094 C -6.308594 2.761719 -5.019531 3.933594 -4.226562 3.898438 C -3.964844 3.886719 -3.707031 3.699219 -3.636719 3.34375 C -0.203125 -4.398438 4.042969 -13.585938 8.378906 -22.691406 C 13.203125 -23.269531 18.199219 -23.855469 22.769531 -24.152344 C 16.480469 -7.730469 12.574219 8.761719 18.105469 12.117188 C 18.289062 12.285156 18.554688 12.273438 18.730469 12.265625 C 19.34375 12.238281 19.9375 11.679688 18.941406 11.109375 C 15.324219 9.164062 21.679688 -7.792969 28.9375 -24.265625 C 30.875 -24.265625 32.5625 -23.992188 33.71875 -23.78125 C 35.054688 -23.488281 36.25 -28.128906 30.9375 -28.589844 C 36.859375 -41.558594 43.007812 -53.480469 44.8125 -56.386719 C 45.789062 -58.105469 42.753906 -58.933594 40.730469 -58.839844 C 39.941406 -58.804688 39.242188 -58.59375 39.085938 -58.234375 C 35.613281 -53.226562 29.648438 -41.222656 24.507812 -28.464844 C 20.023438 -28.257812 15.113281 -27.675781 10.304688 -26.835938 C 14 -34.589844 17.703125 -42.167969 21.015625 -48.667969 C 21.175781 -49.027344 18.707031 -50.941406 17.296875 -50.875 C 16.945312 -50.859375 16.6875 -50.761719 16.441406 -50.308594 Z M -5.796875 -20.449219 C -3.261719 -20.917969 -0.113281 -21.417969 3.386719 -22.019531 L -2.808594 -7.363281 C -2.402344 -11.878906 -3.222656 -16.246094 -5.796875 -20.449219 Z M -5.796875 -20.449219 "/></g></g></g><g fill="#fc6111" fill-opacity="1"><g transform="translate(75.142769, 112.708818)"><g><path d="M 15.792969 -41.550781 C 15.441406 -41.535156 15.273438 -41.347656 14.855469 -40.800781 C 12.714844 -37.527344 10.019531 -31.054688 10.648438 -27.03125 C 10.757812 -26.507812 10.949219 -26.25 11.035156 -26.253906 C 11.125 -26.257812 11.203125 -26.4375 11.449219 -26.800781 C 13.832031 -30.617188 16.03125 -34.507812 18.5 -38.238281 C 18.660156 -38.597656 19.167969 -39.0625 18.878906 -39.578125 C 18.480469 -40.617188 17.109375 -41.609375 15.792969 -41.550781 Z M 16.847656 -18.765625 C 16.847656 -18.765625 16.761719 -18.761719 16.679688 -18.582031 C 13.304688 -13.488281 9.839844 -8.304688 5.179688 -4.296875 C 4.578125 -3.914062 4.324219 -3.726562 3.972656 -3.710938 C 3.882812 -3.707031 3.882812 -3.707031 3.792969 -3.789062 C 2.617188 -4.351562 4.9375 -9.484375 5.253906 -10.292969 C 6.847656 -13.894531 8.785156 -17.773438 10.75 -21.039062 L 10.828125 -21.21875 C 11.714844 -23.023438 9.820312 -23.90625 8.472656 -24.460938 C 7.9375 -24.613281 7.578125 -24.769531 7.3125 -24.757812 C 5.820312 -24.691406 0.34375 -9.714844 -0.4375 -7.5625 C -1.441406 -4.429688 0.898438 -1.539062 3.363281 -1.65625 C 6.878906 -1.816406 13.589844 -11.121094 15.480469 -14.03125 C 16.128906 -15.292969 16.949219 -16.566406 17.773438 -17.839844 C 17.570312 -18.445312 17.289062 -18.785156 16.847656 -18.765625 Z M 16.847656 -18.765625 "/></g></g></g><g fill="#fc6111" fill-opacity="1"><g transform="translate(86.666143, 112.174062)"><g><path d="M 18.519531 -37.886719 C 19.273438 -38.714844 17.324219 -40.828125 14.859375 -40.714844 C 13.1875 -40.636719 12.617188 -39.640625 11.800781 -38.277344 C 8.808594 -32.410156 -1.398438 -7.339844 -1.972656 1.148438 C -1.992188 2.648438 -1.402344 5.882812 0.625 5.878906 C 1.542969 -4.742188 14.316406 -33.460938 18.519531 -37.886719 Z M 18.519531 -37.886719 "/></g></g></g><g fill="#fc6111" fill-opacity="1"><g transform="translate(95.726507, 111.753604)"><g><path d="M 18.519531 -37.886719 C 19.273438 -38.714844 17.324219 -40.828125 14.859375 -40.714844 C 13.1875 -40.636719 12.617188 -39.640625 11.800781 -38.277344 C 8.808594 -32.410156 -1.398438 -7.339844 -1.972656 1.148438 C -1.992188 2.648438 -1.402344 5.882812 0.625 5.878906 C 1.542969 -4.742188 14.316406 -33.460938 18.519531 -37.886719 Z M 18.519531 -37.886719 "/></g></g></g><g fill="#fc6111" fill-opacity="1"><g transform="translate(104.78687, 111.333147)"><g><path d="M 16.484375 -7.640625 C 16.28125 -8.160156 16.332031 -9.042969 16.703125 -10.472656 C 16.957031 -12.601562 17.921875 -16.523438 19.617188 -18.011719 C 20.300781 -18.484375 20.207031 -18.570312 19.652344 -19.160156 C 18.722656 -20.175781 17.734375 -20.570312 16.855469 -20.53125 C 16.503906 -20.511719 16.15625 -20.410156 15.722656 -20.210938 C 16.308594 -22.796875 16.617188 -25.632812 14.585938 -27.652344 C 14.03125 -28.15625 13.214844 -28.648438 12.335938 -28.605469 C 11.371094 -28.5625 10.339844 -27.984375 9.15625 -26.871094 C 4.078125 -22.316406 -4.953125 -4.179688 2.140625 -1.332031 C 2.683594 -1.09375 3.042969 -0.933594 3.570312 -0.960938 C 3.746094 -0.96875 3.917969 -1.0625 4.09375 -1.070312 C 6.417969 -2.238281 9.347656 -7.574219 11.785156 -12.007812 C 11.792969 -11.832031 11.796875 -11.742188 11.722656 -11.476562 C 11.480469 -9.085938 11.351562 -6.167969 13.1875 -4.578125 C 13.738281 -4.074219 14.371094 -3.753906 15.164062 -3.789062 C 19.914062 -4.007812 26.5 -15.953125 28.140625 -18.585938 C 27.832031 -19.539062 27.570312 -19.527344 26.863281 -19.496094 C 26.453125 -18.859375 19.3125 -7.507812 17.023438 -7.402344 C 16.847656 -7.394531 16.667969 -7.472656 16.484375 -7.640625 Z M 12.183594 -22.429688 C 12.859375 -23.078125 13.367188 -23.542969 13.804688 -23.5625 C 14.507812 -23.59375 14.75 -22.195312 14.53125 -19.277344 C 13.769531 -18.625 13.371094 -17.722656 12.972656 -16.824219 C 9.925781 -12.1875 6.113281 -5.042969 4.792969 -4.984375 C 3.511719 -5.980469 8.921875 -18.574219 12.183594 -22.429688 Z M 12.183594 -22.429688 "/></g></g></g><g fill="#fc6111" fill-opacity="1"><g transform="translate(126.335054, 110.333177)"><g/></g></g><g clip-path="url(#id1)"><g clip-path="url(#id2)"><g clip-path="url(#id3)"><path fill="#000000" d="M 19.582031 134.847656 C 23.027344 132.042969 137.96875 114.734375 163.777344 128.191406 C 135.101562 124.011719 59.171875 132.570312 34.324219 139.589844 C 35.824219 140.015625 37.886719 140.367188 40.78125 140.582031 C 39.613281 141.835938 31.546875 141.222656 28.070312 140.578125 C 22.4375 139.695312 16.527344 137.328125 19.574219 134.863281 Z M 19.582031 134.847656 " fill-opacity="1" fill-rule="nonzero"/></g></g></g><g clip-path="url(#id4)"><path fill="#7ed957" d="M 35.605469 62.316406 L 43.300781 72.441406 C 43.300781 72.441406 50.3125 56.898438 67.058594 51.554688 C 67.058594 51.554688 52.089844 54.59375 42.875 66.492188 L 39.621094 62.234375 L 38.433594 60.707031 L 39.632812 58.804688 C 36.722656 58.636719 33.800781 58.746094 31.597656 55.679688 C 29.394531 52.617188 32.339844 44.304688 38.5625 42.269531 C 38.832031 42.175781 39.117188 42.105469 39.386719 42.03125 C 39.058594 44.777344 38.679688 48.359375 38.539062 48.726562 C 41.4375 41.667969 53.859375 15.800781 62.261719 34.34375 C 62.261719 34.34375 62.414062 33.671875 62.546875 32.640625 C 70.820312 27.273438 72.976562 33.589844 73.082031 39.074219 C 58.375 37.679688 48.003906 52.6875 46.574219 54.878906 L 46.5625 54.890625 L 46.527344 54.9375 C 46.445312 55.066406 46.398438 55.136719 46.398438 55.136719 L 47.28125 54.285156 C 56.921875 45.132812 66.539062 43.5 70.675781 43.238281 L 75.601562 50.195312 C 75.601562 50.195312 55.167969 55.007812 47.507812 72.320312 C 47.507812 72.320312 61.34375 55.667969 82.25 53.339844 L 75.601562 42.316406 C 79.140625 27.214844 68.980469 24.550781 63.097656 27.402344 C 62.839844 27.519531 62.617188 27.59375 62.4375 27.640625 C 61.898438 24.917969 60.292969 22.410156 56.261719 22.398438 C 55.605469 22.398438 54.882812 22.460938 54.082031 22.601562 C 44.417969 24.328125 41.378906 33.847656 39.824219 38.933594 C 39.8125 38.96875 39.800781 39.027344 39.789062 39.089844 C 39.339844 39.148438 38.984375 39.207031 38.796875 39.230469 C 37.796875 39.359375 36.804688 39.585938 35.816406 39.902344 C 28.285156 42.363281 25.621094 51.105469 27.402344 56.128906 C 28.957031 60.542969 31.832031 61.5 35.582031 62.304688 Z M 35.605469 62.316406 " fill-opacity="1" fill-rule="evenodd"/></g><g fill="#6e6d6d" fill-opacity="1"><g transform="translate(52.142128, 144.402159)"><g><path d="M 5.03125 0 L 3.75 -1.859375 L 2.328125 -1.859375 L 2.328125 0 L 0.796875 0 L 0.796875 -6.65625 L 3.671875 -6.65625 C 4.265625 -6.65625 4.773438 -6.554688 5.203125 -6.359375 C 5.640625 -6.171875 5.972656 -5.894531 6.203125 -5.53125 C 6.441406 -5.164062 6.5625 -4.738281 6.5625 -4.25 C 6.5625 -3.75 6.441406 -3.316406 6.203125 -2.953125 C 5.972656 -2.597656 5.640625 -2.328125 5.203125 -2.140625 L 6.6875 0 Z M 5 -4.25 C 5 -4.625 4.878906 -4.910156 4.640625 -5.109375 C 4.398438 -5.304688 4.050781 -5.40625 3.59375 -5.40625 L 2.328125 -5.40625 L 2.328125 -3.078125 L 3.59375 -3.078125 C 4.050781 -3.078125 4.398438 -3.175781 4.640625 -3.375 C 4.878906 -3.582031 5 -3.875 5 -4.25 Z M 5 -4.25 "/></g></g></g><g fill="#6e6d6d" fill-opacity="1"><g transform="translate(62.990148, 144.402159)"><g><path d="M 5.953125 -1.234375 L 5.953125 0 L 0.796875 0 L 0.796875 -6.65625 L 5.828125 -6.65625 L 5.828125 -5.421875 L 2.328125 -5.421875 L 2.328125 -3.984375 L 5.421875 -3.984375 L 5.421875 -2.78125 L 2.328125 -2.78125 L 2.328125 -1.234375 Z M 5.953125 -1.234375 "/></g></g></g><g fill="#6e6d6d" fill-opacity="1"><g transform="translate(73.229905, 144.402159)"><g><path d="M 2.984375 0.109375 C 2.453125 0.109375 1.941406 0.0390625 1.453125 -0.09375 C 0.960938 -0.238281 0.566406 -0.425781 0.265625 -0.65625 L 0.796875 -1.8125 C 1.078125 -1.601562 1.410156 -1.4375 1.796875 -1.3125 C 2.191406 -1.1875 2.585938 -1.125 2.984375 -1.125 C 3.421875 -1.125 3.742188 -1.1875 3.953125 -1.3125 C 4.160156 -1.445312 4.265625 -1.625 4.265625 -1.84375 C 4.265625 -2 4.203125 -2.128906 4.078125 -2.234375 C 3.960938 -2.335938 3.804688 -2.421875 3.609375 -2.484375 C 3.421875 -2.546875 3.160156 -2.613281 2.828125 -2.6875 C 2.316406 -2.8125 1.898438 -2.929688 1.578125 -3.046875 C 1.253906 -3.171875 0.976562 -3.363281 0.75 -3.625 C 0.519531 -3.894531 0.40625 -4.253906 0.40625 -4.703125 C 0.40625 -5.085938 0.507812 -5.4375 0.71875 -5.75 C 0.925781 -6.0625 1.238281 -6.3125 1.65625 -6.5 C 2.082031 -6.6875 2.597656 -6.78125 3.203125 -6.78125 C 3.628906 -6.78125 4.046875 -6.726562 4.453125 -6.625 C 4.859375 -6.519531 5.210938 -6.375 5.515625 -6.1875 L 5.046875 -5.015625 C 4.429688 -5.359375 3.816406 -5.53125 3.203125 -5.53125 C 2.765625 -5.53125 2.441406 -5.460938 2.234375 -5.328125 C 2.035156 -5.191406 1.9375 -5.007812 1.9375 -4.78125 C 1.9375 -4.550781 2.050781 -4.378906 2.28125 -4.265625 C 2.519531 -4.148438 2.882812 -4.039062 3.375 -3.9375 C 3.882812 -3.820312 4.300781 -3.703125 4.625 -3.578125 C 4.945312 -3.453125 5.222656 -3.257812 5.453125 -3 C 5.679688 -2.738281 5.796875 -2.390625 5.796875 -1.953125 C 5.796875 -1.566406 5.691406 -1.21875 5.484375 -0.90625 C 5.273438 -0.59375 4.957031 -0.34375 4.53125 -0.15625 C 4.101562 0.0195312 3.585938 0.109375 2.984375 0.109375 Z M 2.984375 0.109375 "/></g></g></g><g fill="#6e6d6d" fill-opacity="1"><g transform="translate(83.15603, 144.402159)"><g><path d="M 2.171875 -5.40625 L 0.03125 -5.40625 L 0.03125 -6.65625 L 5.84375 -6.65625 L 5.84375 -5.40625 L 3.71875 -5.40625 L 3.71875 0 L 2.171875 0 Z M 2.171875 -5.40625 "/></g></g></g><g fill="#6e6d6d" fill-opacity="1"><g transform="translate(92.892074, 144.402159)"><g><path d="M 5.171875 -1.421875 L 2.078125 -1.421875 L 1.5 0 L -0.078125 0 L 2.890625 -6.65625 L 4.40625 -6.65625 L 7.390625 0 L 5.765625 0 Z M 4.6875 -2.59375 L 3.640625 -5.140625 L 2.578125 -2.59375 Z M 4.6875 -2.59375 "/></g></g></g><g fill="#6e6d6d" fill-opacity="1"><g transform="translate(104.034726, 144.402159)"><g><path d="M 3.75 0.109375 C 2.800781 0.109375 2.0625 -0.148438 1.53125 -0.671875 C 1 -1.203125 0.734375 -1.957031 0.734375 -2.9375 L 0.734375 -6.65625 L 2.28125 -6.65625 L 2.28125 -2.984375 C 2.28125 -1.796875 2.773438 -1.203125 3.765625 -1.203125 C 4.242188 -1.203125 4.609375 -1.34375 4.859375 -1.625 C 5.117188 -1.914062 5.25 -2.367188 5.25 -2.984375 L 5.25 -6.65625 L 6.765625 -6.65625 L 6.765625 -2.9375 C 6.765625 -1.957031 6.5 -1.203125 5.96875 -0.671875 C 5.4375 -0.148438 4.695312 0.109375 3.75 0.109375 Z M 3.75 0.109375 "/></g></g></g><g fill="#6e6d6d" fill-opacity="1"><g transform="translate(115.386464, 144.402159)"><g><path d="M 5.03125 0 L 3.75 -1.859375 L 2.328125 -1.859375 L 2.328125 0 L 0.796875 0 L 0.796875 -6.65625 L 3.671875 -6.65625 C 4.265625 -6.65625 4.773438 -6.554688 5.203125 -6.359375 C 5.640625 -6.171875 5.972656 -5.894531 6.203125 -5.53125 C 6.441406 -5.164062 6.5625 -4.738281 6.5625 -4.25 C 6.5625 -3.75 6.441406 -3.316406 6.203125 -2.953125 C 5.972656 -2.597656 5.640625 -2.328125 5.203125 -2.140625 L 6.6875 0 Z M 5 -4.25 C 5 -4.625 4.878906 -4.910156 4.640625 -5.109375 C 4.398438 -5.304688 4.050781 -5.40625 3.59375 -5.40625 L 2.328125 -5.40625 L 2.328125 -3.078125 L 3.59375 -3.078125 C 4.050781 -3.078125 4.398438 -3.175781 4.640625 -3.375 C 4.878906 -3.582031 5 -3.875 5 -4.25 Z M 5 -4.25 "/></g></g></g><g fill="#6e6d6d" fill-opacity="1"><g transform="translate(126.234481, 144.402159)"><g><path d="M 5.171875 -1.421875 L 2.078125 -1.421875 L 1.5 0 L -0.078125 0 L 2.890625 -6.65625 L 4.40625 -6.65625 L 7.390625 0 L 5.765625 0 Z M 4.6875 -2.59375 L 3.640625 -5.140625 L 2.578125 -2.59375 Z M 4.6875 -2.59375 "/></g></g></g><g fill="#6e6d6d" fill-opacity="1"><g transform="translate(137.377129, 144.402159)"><g><path d="M 6.90625 -6.65625 L 6.90625 0 L 5.640625 0 L 2.3125 -4.046875 L 2.3125 0 L 0.796875 0 L 0.796875 -6.65625 L 2.0625 -6.65625 L 5.375 -2.609375 L 5.375 -6.65625 Z M 6.90625 -6.65625 "/></g></g></g><g fill="#6e6d6d" fill-opacity="1"><g transform="translate(148.91895, 144.402159)"><g><path d="M 2.171875 -5.40625 L 0.03125 -5.40625 L 0.03125 -6.65625 L 5.84375 -6.65625 L 5.84375 -5.40625 L 3.71875 -5.40625 L 3.71875 0 L 2.171875 0 Z M 2.171875 -5.40625 "/></g></g></g></svg>