<svg xmlns="http://www.w3.org/2000/svg" xmlns:xlink="http://www.w3.org/1999/xlink" width="160" zoomAndPan="magnify" viewBox="0 0 120 119.999999" height="160" preserveAspectRatio="xMidYMid meet" version="1.0"><defs><g/><clipPath id="c584a719fe"><path d="M 29 67 L 89 67 L 89 76 L 29 76 Z M 29 67 " clip-rule="nonzero"/></clipPath><clipPath id="f4b4596d61"><path d="M 38.195312 50.164062 L 88.59375 69.628906 L 79.46875 93.261719 L 29.070312 73.796875 Z M 38.195312 50.164062 " clip-rule="nonzero"/></clipPath><clipPath id="82b9cb0bd1"><path d="M 38.195312 50.164062 L 88.59375 69.628906 L 79.46875 93.261719 L 29.070312 73.796875 Z M 38.195312 50.164062 " clip-rule="nonzero"/></clipPath><clipPath id="54d871ff9c"><path d="M 32.609375 26.78125 L 55.5 26.78125 L 55.5 47.230469 L 32.609375 47.230469 Z M 32.609375 26.78125 " clip-rule="nonzero"/></clipPath></defs><rect x="-12" width="144" fill="#ffffff" y="-12" height="143.999998" fill-opacity="1"/><rect x="-12" width="144" fill="#ffffff" y="-12" height="143.999998" fill-opacity="1"/><rect x="-12" width="144" fill="#f8f8f8" y="-12" height="143.999998" fill-opacity="1"/><g fill="#6e6d6d" fill-opacity="1"><g transform="translate(42.964967, 76.432251)"><g><path d="M 2.046875 0 L 1.53125 -0.75 L 0.953125 -0.75 L 0.953125 0 L 0.328125 0 L 0.328125 -2.71875 L 1.5 -2.71875 C 1.738281 -2.71875 1.945312 -2.675781 2.125 -2.59375 C 2.300781 -2.507812 2.4375 -2.394531 2.53125 -2.25 C 2.625 -2.101562 2.671875 -1.929688 2.671875 -1.734375 C 2.671875 -1.523438 2.625 -1.347656 2.53125 -1.203125 C 2.4375 -1.054688 2.296875 -0.945312 2.109375 -0.875 L 2.71875 0 Z M 2.03125 -1.734375 C 2.03125 -1.878906 1.984375 -1.992188 1.890625 -2.078125 C 1.796875 -2.160156 1.648438 -2.203125 1.453125 -2.203125 L 0.953125 -2.203125 L 0.953125 -1.25 L 1.453125 -1.25 C 1.648438 -1.25 1.796875 -1.289062 1.890625 -1.375 C 1.984375 -1.457031 2.03125 -1.578125 2.03125 -1.734375 Z M 2.03125 -1.734375 "/></g></g></g><g fill="#6e6d6d" fill-opacity="1"><g transform="translate(47.37994, 76.432251)"><g><path d="M 2.421875 -0.5 L 2.421875 0 L 0.328125 0 L 0.328125 -2.71875 L 2.375 -2.71875 L 2.375 -2.203125 L 0.953125 -2.203125 L 0.953125 -1.625 L 2.203125 -1.625 L 2.203125 -1.125 L 0.953125 -1.125 L 0.953125 -0.5 Z M 2.421875 -0.5 "/></g></g></g><g fill="#6e6d6d" fill-opacity="1"><g transform="translate(51.54736, 76.432251)"><g><path d="M 1.21875 0.046875 C 1 0.046875 0.789062 0.0195312 0.59375 -0.03125 C 0.394531 -0.09375 0.234375 -0.171875 0.109375 -0.265625 L 0.328125 -0.734375 C 0.441406 -0.648438 0.578125 -0.582031 0.734375 -0.53125 C 0.890625 -0.476562 1.050781 -0.453125 1.21875 -0.453125 C 1.394531 -0.453125 1.523438 -0.476562 1.609375 -0.53125 C 1.691406 -0.582031 1.734375 -0.65625 1.734375 -0.75 C 1.734375 -0.8125 1.707031 -0.863281 1.65625 -0.90625 C 1.613281 -0.945312 1.550781 -0.976562 1.46875 -1 C 1.394531 -1.03125 1.289062 -1.0625 1.15625 -1.09375 C 0.945312 -1.144531 0.773438 -1.191406 0.640625 -1.234375 C 0.515625 -1.285156 0.398438 -1.363281 0.296875 -1.46875 C 0.203125 -1.582031 0.15625 -1.734375 0.15625 -1.921875 C 0.15625 -2.078125 0.195312 -2.21875 0.28125 -2.34375 C 0.375 -2.46875 0.503906 -2.566406 0.671875 -2.640625 C 0.847656 -2.722656 1.0625 -2.765625 1.3125 -2.765625 C 1.476562 -2.765625 1.644531 -2.742188 1.8125 -2.703125 C 1.976562 -2.660156 2.125 -2.597656 2.25 -2.515625 L 2.046875 -2.046875 C 1.796875 -2.179688 1.546875 -2.25 1.296875 -2.25 C 1.117188 -2.25 0.988281 -2.21875 0.90625 -2.15625 C 0.820312 -2.101562 0.78125 -2.03125 0.78125 -1.9375 C 0.78125 -1.851562 0.828125 -1.785156 0.921875 -1.734375 C 1.023438 -1.691406 1.175781 -1.648438 1.375 -1.609375 C 1.582031 -1.554688 1.75 -1.503906 1.875 -1.453125 C 2.007812 -1.410156 2.125 -1.332031 2.21875 -1.21875 C 2.3125 -1.113281 2.359375 -0.972656 2.359375 -0.796875 C 2.359375 -0.640625 2.316406 -0.492188 2.234375 -0.359375 C 2.148438 -0.234375 2.019531 -0.132812 1.84375 -0.0625 C 1.664062 0.0078125 1.457031 0.046875 1.21875 0.046875 Z M 1.21875 0.046875 "/></g></g></g><g fill="#6e6d6d" fill-opacity="1"><g transform="translate(55.587136, 76.432251)"><g><path d="M 0.890625 -2.203125 L 0.015625 -2.203125 L 0.015625 -2.71875 L 2.375 -2.71875 L 2.375 -2.203125 L 1.515625 -2.203125 L 1.515625 0 L 0.890625 0 Z M 0.890625 -2.203125 "/></g></g></g><g fill="#6e6d6d" fill-opacity="1"><g transform="translate(59.549553, 76.432251)"><g><path d="M 2.109375 -0.578125 L 0.84375 -0.578125 L 0.609375 0 L -0.03125 0 L 1.171875 -2.71875 L 1.796875 -2.71875 L 3 0 L 2.34375 0 Z M 1.90625 -1.0625 L 1.484375 -2.09375 L 1.046875 -1.0625 Z M 1.90625 -1.0625 "/></g></g></g><g fill="#6e6d6d" fill-opacity="1"><g transform="translate(64.084437, 76.432251)"><g><path d="M 1.53125 0.046875 C 1.144531 0.046875 0.84375 -0.0546875 0.625 -0.265625 C 0.40625 -0.484375 0.296875 -0.789062 0.296875 -1.1875 L 0.296875 -2.71875 L 0.921875 -2.71875 L 0.921875 -1.21875 C 0.921875 -0.726562 1.125 -0.484375 1.53125 -0.484375 C 1.726562 -0.484375 1.878906 -0.539062 1.984375 -0.65625 C 2.085938 -0.78125 2.140625 -0.96875 2.140625 -1.21875 L 2.140625 -2.71875 L 2.75 -2.71875 L 2.75 -1.1875 C 2.75 -0.789062 2.640625 -0.484375 2.421875 -0.265625 C 2.210938 -0.0546875 1.914062 0.046875 1.53125 0.046875 Z M 1.53125 0.046875 "/></g></g></g><g fill="#6e6d6d" fill-opacity="1"><g transform="translate(68.704416, 76.432251)"><g><path d="M 2.046875 0 L 1.53125 -0.75 L 0.953125 -0.75 L 0.953125 0 L 0.328125 0 L 0.328125 -2.71875 L 1.5 -2.71875 C 1.738281 -2.71875 1.945312 -2.675781 2.125 -2.59375 C 2.300781 -2.507812 2.4375 -2.394531 2.53125 -2.25 C 2.625 -2.101562 2.671875 -1.929688 2.671875 -1.734375 C 2.671875 -1.523438 2.625 -1.347656 2.53125 -1.203125 C 2.4375 -1.054688 2.296875 -0.945312 2.109375 -0.875 L 2.71875 0 Z M 2.03125 -1.734375 C 2.03125 -1.878906 1.984375 -1.992188 1.890625 -2.078125 C 1.796875 -2.160156 1.648438 -2.203125 1.453125 -2.203125 L 0.953125 -2.203125 L 0.953125 -1.25 L 1.453125 -1.25 C 1.648438 -1.25 1.796875 -1.289062 1.890625 -1.375 C 1.984375 -1.457031 2.03125 -1.578125 2.03125 -1.734375 Z M 2.03125 -1.734375 "/></g></g></g><g fill="#6e6d6d" fill-opacity="1"><g transform="translate(73.119388, 76.432251)"><g><path d="M 2.109375 -0.578125 L 0.84375 -0.578125 L 0.609375 0 L -0.03125 0 L 1.171875 -2.71875 L 1.796875 -2.71875 L 3 0 L 2.34375 0 Z M 1.90625 -1.0625 L 1.484375 -2.09375 L 1.046875 -1.0625 Z M 1.90625 -1.0625 "/></g></g></g><g fill="#6e6d6d" fill-opacity="1"><g transform="translate(77.65427, 76.432251)"><g><path d="M 2.8125 -2.71875 L 2.8125 0 L 2.296875 0 L 0.9375 -1.640625 L 0.9375 0 L 0.328125 0 L 0.328125 -2.71875 L 0.84375 -2.71875 L 2.1875 -1.0625 L 2.1875 -2.71875 Z M 2.8125 -2.71875 "/></g></g></g><g fill="#6e6d6d" fill-opacity="1"><g transform="translate(82.35161, 76.432251)"><g><path d="M 0.890625 -2.203125 L 0.015625 -2.203125 L 0.015625 -2.71875 L 2.375 -2.71875 L 2.375 -2.203125 L 1.515625 -2.203125 L 1.515625 0 L 0.890625 0 Z M 0.890625 -2.203125 "/></g></g></g><g clip-path="url(#c584a719fe)"><g clip-path="url(#f4b4596d61)"><g clip-path="url(#82b9cb0bd1)"><path fill="#000000" d="M 29.714844 72.535156 C 31.121094 71.394531 77.976562 64.390625 88.5 69.875 C 76.808594 68.164062 45.855469 71.621094 35.726562 74.46875 C 36.339844 74.644531 37.179688 74.785156 38.359375 74.875 C 37.886719 75.386719 34.597656 75.132812 33.179688 74.867188 C 30.882812 74.507812 28.472656 73.542969 29.714844 72.539062 Z M 29.714844 72.535156 " fill-opacity="1" fill-rule="nonzero"/></g></g></g><g clip-path="url(#54d871ff9c)"><path fill="#7ed957" d="M 36.261719 43.09375 L 39.421875 47.230469 C 39.421875 47.230469 42.296875 40.878906 49.167969 38.695312 C 49.167969 38.695312 43.027344 39.9375 39.246094 44.800781 L 37.910156 43.058594 L 37.421875 42.433594 L 37.917969 41.65625 C 36.722656 41.589844 35.523438 41.632812 34.617188 40.382812 C 33.714844 39.128906 34.921875 35.730469 37.476562 34.898438 C 37.585938 34.859375 37.703125 34.832031 37.816406 34.804688 C 37.679688 35.925781 37.523438 37.390625 37.46875 37.539062 C 38.65625 34.652344 43.753906 24.082031 47.199219 31.660156 C 47.199219 31.660156 47.261719 31.386719 47.316406 30.964844 C 50.710938 28.769531 51.597656 31.351562 51.640625 33.59375 C 45.605469 33.023438 41.351562 39.15625 40.765625 40.050781 L 40.761719 40.058594 L 40.746094 40.078125 C 40.710938 40.128906 40.691406 40.160156 40.691406 40.160156 L 41.054688 39.8125 C 45.011719 36.070312 48.957031 35.402344 50.652344 35.296875 L 52.675781 38.136719 C 52.675781 38.136719 44.289062 40.105469 41.148438 47.183594 C 41.148438 47.183594 46.824219 40.375 55.402344 39.425781 L 52.675781 34.917969 C 54.125 28.746094 49.957031 27.660156 47.542969 28.824219 C 47.4375 28.871094 47.347656 28.902344 47.273438 28.921875 C 47.050781 27.808594 46.394531 26.785156 44.738281 26.78125 C 44.46875 26.78125 44.171875 26.804688 43.84375 26.863281 C 39.878906 27.566406 38.632812 31.457031 37.992188 33.535156 C 37.988281 33.550781 37.984375 33.574219 37.980469 33.597656 C 37.796875 33.625 37.652344 33.648438 37.574219 33.65625 C 37.164062 33.710938 36.757812 33.800781 36.351562 33.933594 C 33.261719 34.9375 32.167969 38.511719 32.898438 40.566406 C 33.535156 42.367188 34.714844 42.757812 36.253906 43.085938 Z M 36.261719 43.09375 " fill-opacity="1" fill-rule="evenodd"/></g><g fill="#fc6111" fill-opacity="1"><g transform="translate(40.117985, 64.100073)"><g><path d="M 6.691406 -20.472656 C 5.046875 -17.242188 3.550781 -13.941406 2.09375 -10.574219 C 0.242188 -10.238281 -1.5 -9.867188 -2.957031 -9.585938 C -3.84375 -9.367188 -3.246094 -8.136719 -3.011719 -7.683594 C -1.457031 -5.097656 -1.769531 -2.574219 -2.71875 0.199219 C -2.777344 0.414062 -2.738281 0.558594 -2.625 0.660156 C -2.566406 1.125 -2.042969 1.601562 -1.71875 1.585938 C -1.613281 1.582031 -1.507812 1.503906 -1.480469 1.359375 C -0.0820312 -1.789062 1.644531 -5.53125 3.410156 -9.234375 C 5.371094 -9.46875 7.40625 -9.707031 9.265625 -9.832031 C 6.707031 -3.144531 5.117188 3.566406 7.367188 4.933594 C 7.445312 5 7.550781 4.996094 7.621094 4.992188 C 7.875 4.980469 8.113281 4.753906 7.707031 4.523438 C 6.238281 3.730469 8.824219 -3.171875 11.777344 -9.875 C 12.566406 -9.875 13.253906 -9.765625 13.722656 -9.679688 C 14.265625 -9.558594 14.753906 -11.449219 12.589844 -11.636719 C 15 -16.914062 17.503906 -21.765625 18.238281 -22.949219 C 18.636719 -23.648438 17.402344 -23.984375 16.578125 -23.945312 C 16.253906 -23.933594 15.972656 -23.847656 15.90625 -23.699219 C 14.496094 -21.660156 12.066406 -16.777344 9.976562 -11.585938 C 8.148438 -11.5 6.152344 -11.265625 4.191406 -10.921875 C 5.699219 -14.078125 7.203125 -17.160156 8.554688 -19.808594 C 8.617188 -19.953125 7.613281 -20.734375 7.039062 -20.707031 C 6.898438 -20.699219 6.792969 -20.660156 6.691406 -20.472656 Z M -2.359375 -8.320312 C -1.328125 -8.511719 -0.046875 -8.714844 1.378906 -8.960938 L -1.144531 -2.996094 C -0.976562 -4.835938 -1.3125 -6.613281 -2.359375 -8.320312 Z M -2.359375 -8.320312 "/></g></g></g><g fill="#fc6111" fill-opacity="1"><g transform="translate(52.32587, 63.533551)"><g><path d="M 6.425781 -16.910156 C 6.285156 -16.902344 6.214844 -16.828125 6.046875 -16.605469 C 5.175781 -15.273438 4.078125 -12.640625 4.332031 -11 C 4.378906 -10.789062 4.457031 -10.683594 4.492188 -10.683594 C 4.527344 -10.6875 4.558594 -10.761719 4.660156 -10.90625 C 5.628906 -12.460938 6.523438 -14.042969 7.53125 -15.5625 C 7.59375 -15.707031 7.800781 -15.898438 7.683594 -16.109375 C 7.519531 -16.53125 6.964844 -16.933594 6.425781 -16.910156 Z M 6.855469 -7.636719 C 6.855469 -7.636719 6.820312 -7.636719 6.789062 -7.5625 C 5.414062 -5.488281 4.003906 -3.378906 2.109375 -1.75 C 1.863281 -1.59375 1.757812 -1.515625 1.617188 -1.511719 C 1.582031 -1.507812 1.582031 -1.507812 1.542969 -1.542969 C 1.066406 -1.773438 2.007812 -3.859375 2.136719 -4.1875 C 2.789062 -5.65625 3.574219 -7.234375 4.375 -8.5625 L 4.40625 -8.636719 C 4.769531 -9.371094 3.996094 -9.730469 3.449219 -9.953125 C 3.230469 -10.015625 3.085938 -10.082031 2.976562 -10.078125 C 2.367188 -10.046875 0.140625 -3.953125 -0.179688 -3.078125 C -0.585938 -1.800781 0.367188 -0.625 1.367188 -0.671875 C 2.800781 -0.738281 5.53125 -4.527344 6.300781 -5.710938 C 6.5625 -6.226562 6.898438 -6.742188 7.234375 -7.261719 C 7.148438 -7.507812 7.035156 -7.644531 6.855469 -7.636719 Z M 6.855469 -7.636719 "/></g></g></g><g fill="#fc6111" fill-opacity="1"><g transform="translate(57.015702, 63.315914)"><g><path d="M 7.535156 -15.417969 C 7.84375 -15.757812 7.050781 -16.617188 6.046875 -16.570312 C 5.367188 -16.539062 5.136719 -16.132812 4.800781 -15.578125 C 3.585938 -13.191406 -0.570312 -2.988281 -0.804688 0.46875 C -0.8125 1.078125 -0.570312 2.394531 0.253906 2.390625 C 0.628906 -1.929688 5.828125 -13.617188 7.535156 -15.417969 Z M 7.535156 -15.417969 "/></g></g></g><g fill="#fc6111" fill-opacity="1"><g transform="translate(60.703127, 63.144794)"><g><path d="M 7.535156 -15.417969 C 7.84375 -15.757812 7.050781 -16.617188 6.046875 -16.570312 C 5.367188 -16.539062 5.136719 -16.132812 4.800781 -15.578125 C 3.585938 -13.191406 -0.570312 -2.988281 -0.804688 0.46875 C -0.8125 1.078125 -0.570312 2.394531 0.253906 2.390625 C 0.628906 -1.929688 5.828125 -13.617188 7.535156 -15.417969 Z M 7.535156 -15.417969 "/></g></g></g><g fill="#fc6111" fill-opacity="1"><g transform="translate(64.390553, 62.973675)"><g><path d="M 6.707031 -3.109375 C 6.628906 -3.320312 6.644531 -3.679688 6.796875 -4.261719 C 6.902344 -5.128906 7.292969 -6.726562 7.984375 -7.332031 C 8.261719 -7.523438 8.222656 -7.558594 7.996094 -7.796875 C 7.621094 -8.210938 7.21875 -8.371094 6.859375 -8.355469 C 6.714844 -8.347656 6.574219 -8.304688 6.398438 -8.226562 C 6.636719 -9.277344 6.761719 -10.433594 5.9375 -11.253906 C 5.710938 -11.460938 5.378906 -11.660156 5.019531 -11.640625 C 4.628906 -11.625 4.207031 -11.390625 3.726562 -10.9375 C 1.660156 -9.082031 -2.015625 -1.699219 0.871094 -0.542969 C 1.089844 -0.445312 1.238281 -0.378906 1.453125 -0.390625 C 1.523438 -0.394531 1.59375 -0.433594 1.667969 -0.4375 C 2.613281 -0.910156 3.804688 -3.082031 4.796875 -4.886719 C 4.800781 -4.816406 4.800781 -4.78125 4.769531 -4.671875 C 4.671875 -3.695312 4.621094 -2.511719 5.367188 -1.863281 C 5.59375 -1.660156 5.847656 -1.527344 6.171875 -1.542969 C 8.105469 -1.632812 10.785156 -6.492188 11.453125 -7.5625 C 11.328125 -7.953125 11.21875 -7.949219 10.933594 -7.933594 C 10.765625 -7.675781 7.859375 -3.054688 6.929688 -3.011719 C 6.855469 -3.007812 6.785156 -3.042969 6.707031 -3.109375 Z M 4.957031 -9.128906 C 5.234375 -9.390625 5.441406 -9.582031 5.617188 -9.589844 C 5.90625 -9.601562 6.003906 -9.03125 5.914062 -7.84375 C 5.605469 -7.578125 5.441406 -7.214844 5.28125 -6.847656 C 4.039062 -4.960938 2.488281 -2.054688 1.949219 -2.027344 C 1.429688 -2.433594 3.632812 -7.558594 4.957031 -9.128906 Z M 4.957031 -9.128906 "/></g></g></g><g fill="#fc6111" fill-opacity="1"><g transform="translate(73.160325, 62.566703)"><g/></g></g></svg>